<svg fill="none" height="275" viewBox="0 0 374 275" width="374" xmlns="http://www.w3.org/2000/svg" xmlns:xlink="http://www.w3.org/1999/xlink"><linearGradient id="a" gradientUnits="userSpaceOnUse" x1="186.921" x2="186.921" y1="270.369" y2="7.69061"><stop offset="0" stop-color="#00ff18"/><stop offset=".735689" stop-color="#05aef9"/><stop offset="1" stop-color="#05aef9"/></linearGradient><path d="m26.632 29.3362c-44.3134 43.4826-32.86004 126.4758 41.4666 175.7298 30.068 19.924 59.1944 37.018 118.0464 69.03 58.854-32.012 86.335-49.346 116.434-69.224 75.586-49.917 90.668-134.1691 44.376-175.5385-46.292-41.3666-105.883-24.624-121.15-17.728-15.266 6.8947-40.825 25.116-40.825 25.116s-21.932-18.22-37.2-25.1133c-7.84-3.54268-27.417-10.704024-50.8574-10.702691-22.1986.001334-47.864 6.425331-70.2906 28.430691z" fill="url(#a)"/></svg>